<svg width="260" height="260" opacity=".3" xmlns="http://www.w3.org/2000/svg"><path d="M220 16H40C17.909 16 0 33.909 0 56v148c0 22.091 17.909 40 40 40h180c22.091 0 40-17.909 40-40V56c0-22.091-17.909-40-40-40ZM12 204V56c0-15.439 12.561-28 28-28h35v204H40c-15.439 0-28-12.561-28-28Zm236 0c0 15.439-12.561 28-28 28H87V28h133c15.439 0 28 12.561 28 28v148ZM112 58a6 6 0 0 1 6-6h69a6 6 0 1 1 0 12h-69a6 6 0 0 1-6-6Zm81 144a6 6 0 0 1-6 6h-69a6 6 0 1 1 0-12h69a6 6 0 0 1 6 6Zm29-108a6 6 0 0 1-6 6h-69a6 6 0 1 1 0-12h69a6 6 0 0 1 6 6Zm0 36a6 6 0 0 1-6 6h-69a6 6 0 1 1 0-12h69a6 6 0 0 1 6 6Zm0 36a6 6 0 0 1-6 6h-69a6 6 0 1 1 0-12h69a6 6 0 0 1 6 6Z"/></svg>